<svg version="1" xmlns="http://www.w3.org/2000/svg" width="666.667" height="666.667" viewBox="0 0 500.000000 500.000000"><path d="M226 96.5c-34.3 5.9-61.3 19.7-85 43.5-22.4 22.4-35.5 45.7-42.7 76-3.4 14.5-4.3 40.5-1.9 56.8 5.1 34.6 21.2 65.6 46.4 89.3 20.6 19.3 41.8 31.3 67.5 37.9 17.3 4.5 25.9 5.4 45.1 4.7 24.6-.8 43.4-5.5 64-15.9 44.5-22.3 75.4-64.2 83.8-113.3 2.9-17.3 2.2-42-1.6-58.9-7.2-31.1-22.4-57.9-45.3-79.5-22.1-21-49.1-34.6-79.5-40.1-13.1-2.3-38.6-2.6-50.8-.5zm53 14.3c48.4 10.5 87.2 44 104.3 90.2 6.2 16.7 8.1 27.8 8.1 49 .1 20.5-1.5 30.5-7.6 47.9-14.1 40.4-49.3 74.4-90.4 87.4-43.6 13.8-92.5 5.7-128.2-21.4-28.6-21.7-46.5-49.5-54.4-85-3.1-14-3.3-42.6-.4-56.4 10.4-49.5 45.3-89.9 91.7-106.3 8.5-3 24.6-6.8 32.4-7.6 10.1-1 35.2.2 44.5 2.2z"/><path d="M224 248v41h12v-33h18.5l9 16.5 8.9 16.5h12.8l-2-3.3c-3.6-6-17.2-31.3-17.2-32 0-.4.7-.7 1.5-.7 2.7 0 11.2-9.4 12.4-13.6 2.7-9.6.6-18.9-5.5-25.1-6.3-6.2-11-7.3-32.6-7.3H224v41zm37.8-29.6c9.7 5 9.7 21.1 0 26.3-2.4 1.2-6.3 1.8-14.5 2.1l-11.3.4v-31.5l11.3.5c7.8.4 12.3 1 14.5 2.2z"/></svg>